<svg xmlns="http://www.w3.org/2000/svg" viewBox="0 0 512 512">
  <defs>
    <linearGradient id="grad" x1="0%" y1="0%" x2="100%" y2="100%">
      <stop offset="0%" style="stop-color:#6366f1;stop-opacity:1" />
      <stop offset="100%" style="stop-color:#4f46e5;stop-opacity:1" />
    </linearGradient>
  </defs>
  <rect width="512" height="512" rx="128" fill="url(#grad)"/>
  <path d="M256 80c-97.2 0-176 78.8-176 176s78.8 176 176 176 176-78.8 176-176S353.2 80 256 80zm0 320c-79.4 0-144-64.6-144-144s64.6-144 144-144 144 64.6 144 144-64.6 144-144 144zm72-144h-72V152c0-4.4-3.6-8-8-8h-16c-4.4 0-8 3.6-8 8v88c0 4.4 3.6 8 8 8h96c4.4 0 8-3.6 8-8v-16c0-4.4-3.6-8-8-8z" fill="white"/>
  <path d="M384 384l48 48M128 128l-48-48" stroke="white" stroke-width="32" stroke-linecap="round" opacity="0.5"/>
</svg>