<svg width="512" height="512" viewBox="0 0 512 512" fill="none" xmlns="http://www.w3.org/2000/svg">
  <!-- Background Clipboard -->
  <rect x="180" y="60" width="280" height="380" rx="30" fill="#EBF5FF" stroke="#2D3748" stroke-width="16"/>
  <rect x="250" y="40" width="140" height="40" rx="10" fill="#4A5568" stroke="#2D3748" stroke-width="12"/>
  
  <!-- Clipboard Content Lines -->
  <rect x="230" y="240" width="180" height="12" rx="6" fill="#A0AEC0"/>
  <rect x="230" y="290" width="150" height="12" rx="6" fill="#A0AEC0"/>
  <rect x="230" y="340" width="120" height="12" rx="6" fill="#A0AEC0"/>
  
  <!-- Green Check Circle -->
  <circle cx="300" cy="160" r="50" fill="#48BB78" stroke="#2D3748" stroke-width="12"/>
  <path d="M275 160L295 180L330 145" stroke="white" stroke-width="14" stroke-linecap="round" stroke-linejoin="round"/>

  <!-- Person Figure (Front) -->
  <path d="M40 450C40 380 100 340 160 340C220 340 280 380 280 450" fill="#63B3ED" stroke="#2D3748" stroke-width="16" stroke-linejoin="round"/>
  <path d="M160 340V370" stroke="#2D3748" stroke-width="16" stroke-linecap="round"/>
  <circle cx="160" cy="240" r="80" fill="#FEEBC8" stroke="#2D3748" stroke-width="16"/>
  
  <!-- Hair -->
  <path d="M85 220C85 160 120 120 160 120C210 120 235 160 235 220C235 230 220 225 210 215C180 190 140 190 85 220Z" fill="#2D3748" stroke="#2D3748" stroke-width="8"/>
</svg>